<?xml version="1.0" encoding="UTF-8" standalone="no"?>
<!DOCTYPE svg PUBLIC "-//W3C//DTD SVG 1.1//EN" "http://www.w3.org/Graphics/SVG/1.1/DTD/svg11.dtd">
<!-- Generated by graphviz version 2.40.1 (20161225.0304)
 -->
<!-- Title: %0 Pages: 1 -->
<svg width="518pt" height="488pt" viewBox="0.00 0.00 517.96 488.00" xmlns="http://www.w3.org/2000/svg" xmlns:xlink="http://www.w3.org/1999/xlink">
<g id="graph0" class="graph" transform="scale(1 1) rotate(0) translate(4 484)">
<title>%0</title>
<polygon fill="#ffffff" stroke="transparent" points="-4,4 -4,-484 513.9592,-484 513.9592,4 -4,4"/>
<!-- up -->
<g id="node1" class="node">
<title>up</title>
<ellipse fill="none" stroke="#000000" cx="327.4796" cy="-462" rx="35.3587" ry="18"/>
<text text-anchor="middle" x="327.4796" y="-457.8" font-family="Times,serif" font-size="14.00" fill="#000000">up x,y</text>
</g>
<!-- up&#45;&gt;up -->
<g id="edge14" class="edge">
<title>up-&gt;up</title>
<path fill="none" stroke="#000000" d="M358.88,-470.2253C370.7994,-470.5426 380.6585,-467.8008 380.6585,-462 380.6585,-458.012 375.9985,-455.4698 369.2128,-454.3735"/>
<polygon fill="#000000" stroke="#000000" points="369.0657,-450.8592 358.88,-453.7747 368.6607,-457.8474 369.0657,-450.8592"/>
<text text-anchor="middle" x="391.1585" y="-457.8" font-family="Times,serif" font-size="14.00" fill="#000000">360</text>
</g>
<!-- right -->
<g id="node2" class="node">
<title>right</title>
<ellipse fill="none" stroke="#000000" cx="141.4796" cy="-373.2" rx="43.5233" ry="18"/>
<text text-anchor="middle" x="141.4796" y="-369" font-family="Times,serif" font-size="14.00" fill="#000000">right x,y</text>
</g>
<!-- up&#45;&gt;right -->
<g id="edge2" class="edge">
<title>up-&gt;right</title>
<path fill="none" stroke="#000000" d="M296.3659,-453.106C275.7583,-446.7141 248.404,-437.2575 225.4796,-426 213.1303,-419.9356 211.1025,-416.5614 199.4796,-409.2 191.3916,-404.0775 182.6327,-398.6032 174.4317,-393.5091"/>
<polygon fill="#000000" stroke="#000000" points="176.1536,-390.4586 165.8099,-388.1655 172.4659,-396.4086 176.1536,-390.4586"/>
<text text-anchor="middle" x="232.4796" y="-413.4" font-family="Times,serif" font-size="14.00" fill="#000000">90</text>
</g>
<!-- down -->
<g id="node3" class="node">
<title>down</title>
<ellipse fill="none" stroke="#000000" cx="293.4796" cy="-284.4" rx="46.9574" ry="18"/>
<text text-anchor="middle" x="293.4796" y="-280.2" font-family="Times,serif" font-size="14.00" fill="#000000">down x,y</text>
</g>
<!-- up&#45;&gt;down -->
<g id="edge6" class="edge">
<title>up-&gt;down</title>
<path fill="none" stroke="#000000" d="M328.4974,-443.7093C329.3353,-422.3205 329.6632,-385.9281 324.4796,-355.2 321.7814,-339.205 319.8952,-335.2983 313.4796,-320.4 312.1505,-317.3136 310.6354,-314.1471 309.0472,-311.0339"/>
<polygon fill="#000000" stroke="#000000" points="311.9991,-309.1334 304.1769,-301.9875 305.8356,-312.4517 311.9991,-309.1334"/>
<text text-anchor="middle" x="337.9796" y="-369" font-family="Times,serif" font-size="14.00" fill="#000000">180</text>
</g>
<!-- left -->
<g id="node4" class="node">
<title>left</title>
<ellipse fill="none" stroke="#000000" cx="218.4796" cy="-195.6" rx="38.2818" ry="18"/>
<text text-anchor="middle" x="218.4796" y="-191.4" font-family="Times,serif" font-size="14.00" fill="#000000">left x,y</text>
</g>
<!-- up&#45;&gt;left -->
<g id="edge10" class="edge">
<title>up-&gt;left</title>
<path fill="none" stroke="#000000" d="M339.9952,-444.9743C370.0233,-401.9772 439.2365,-288.4045 377.4796,-231.6 373.219,-227.6811 309.4493,-214.0649 263.9826,-204.7486"/>
<polygon fill="#000000" stroke="#000000" points="264.5123,-201.2846 254.0144,-202.7147 263.1128,-208.1433 264.5123,-201.2846"/>
<text text-anchor="middle" x="408.9796" y="-324.6" font-family="Times,serif" font-size="14.00" fill="#000000">270</text>
</g>
<!-- my -->
<g id="node7" class="node">
<title>my</title>
<ellipse fill="none" stroke="#000000" cx="471.4796" cy="-373.2" rx="38.4592" ry="18"/>
<text text-anchor="middle" x="471.4796" y="-369" font-family="Times,serif" font-size="14.00" fill="#000000">x, y+m</text>
</g>
<!-- up&#45;&gt;my -->
<g id="edge18" class="edge">
<title>up-&gt;my</title>
<path fill="none" stroke="#000000" d="M360.5184,-455.449C391.642,-448.709 435.3919,-437.5853 448.4796,-426 455.957,-419.381 461.1007,-409.8901 464.5936,-400.7757"/>
<polygon fill="#000000" stroke="#000000" points="467.9478,-401.7803 467.7681,-391.187 461.3025,-399.5802 467.9478,-401.7803"/>
<text text-anchor="middle" x="483.2275" y="-413.4" font-family="Times,serif" font-size="14.00" fill="#000000">move m</text>
</g>
<!-- right&#45;&gt;up -->
<g id="edge11" class="edge">
<title>right-&gt;up</title>
<path fill="none" stroke="#000000" d="M148.4382,-391.2294C153.8363,-402.8603 162.4407,-417.3754 174.4796,-426 191.7375,-438.3634 244.5374,-448.9969 283.2995,-455.4362"/>
<polygon fill="#000000" stroke="#000000" points="282.8881,-458.9151 293.3193,-457.0602 284.0081,-452.0053 282.8881,-458.9151"/>
<text text-anchor="middle" x="184.9796" y="-413.4" font-family="Times,serif" font-size="14.00" fill="#000000">270</text>
</g>
<!-- right&#45;&gt;right -->
<g id="edge15" class="edge">
<title>right-&gt;right</title>
<path fill="none" stroke="#000000" d="M180.3813,-381.4495C193.1073,-381.4069 203.2406,-378.657 203.2406,-373.2 203.2406,-369.363 198.2309,-366.8644 190.8326,-365.7043"/>
<polygon fill="#000000" stroke="#000000" points="190.6072,-362.179 180.3813,-364.9505 190.1036,-369.1609 190.6072,-362.179"/>
<text text-anchor="middle" x="213.7406" y="-369" font-family="Times,serif" font-size="14.00" fill="#000000">360</text>
</g>
<!-- right&#45;&gt;down -->
<g id="edge3" class="edge">
<title>right-&gt;down</title>
<path fill="none" stroke="#000000" d="M164.5545,-357.7765C173.8947,-351.4686 184.7499,-344.0549 194.4796,-337.2 204.828,-329.9092 206.6001,-326.8716 217.4796,-320.4 228.4589,-313.8691 240.8115,-307.5969 252.316,-302.1697"/>
<polygon fill="#000000" stroke="#000000" points="254.1198,-305.192 261.7315,-297.8223 251.1854,-298.8367 254.1198,-305.192"/>
<text text-anchor="middle" x="224.4796" y="-324.6" font-family="Times,serif" font-size="14.00" fill="#000000">90</text>
</g>
<!-- right&#45;&gt;left -->
<g id="edge7" class="edge">
<title>right-&gt;left</title>
<path fill="none" stroke="#000000" d="M132.4031,-355.3269C129.9821,-349.6755 127.7013,-343.3082 126.4796,-337.2 120.3085,-306.3444 115.7676,-295.9872 126.4796,-266.4 135.3848,-241.8035 158.9089,-223.9487 179.9391,-212.3221"/>
<polygon fill="#000000" stroke="#000000" points="181.8076,-215.2951 189.0561,-207.568 178.5709,-209.0883 181.8076,-215.2951"/>
<text text-anchor="middle" x="136.9796" y="-280.2" font-family="Times,serif" font-size="14.00" fill="#000000">180</text>
</g>
<!-- mx -->
<g id="node5" class="node">
<title>mx</title>
<ellipse fill="none" stroke="#000000" cx="38.4796" cy="-284.4" rx="38.4592" ry="18"/>
<text text-anchor="middle" x="38.4796" y="-280.2" font-family="Times,serif" font-size="14.00" fill="#000000">x+m, y</text>
</g>
<!-- right&#45;&gt;mx -->
<g id="edge20" class="edge">
<title>right-&gt;mx</title>
<path fill="none" stroke="#000000" d="M101.0386,-366.318C70.2519,-360.1582 31.5795,-350.1125 21.9838,-337.2 16.2019,-329.4195 17.5439,-319.5661 21.291,-310.484"/>
<polygon fill="#000000" stroke="#000000" points="24.4857,-311.9221 25.8687,-301.4179 18.237,-308.767 24.4857,-311.9221"/>
<text text-anchor="middle" x="45.2275" y="-324.6" font-family="Times,serif" font-size="14.00" fill="#000000">move m</text>
</g>
<!-- down&#45;&gt;up -->
<g id="edge8" class="edge">
<title>down-&gt;up</title>
<path fill="none" stroke="#000000" d="M292.753,-302.3997C292.2853,-323.8214 292.742,-360.5469 299.4796,-391.2 302.781,-406.2198 308.8648,-422.2106 314.5201,-435.1877"/>
<polygon fill="#000000" stroke="#000000" points="311.4013,-436.7857 318.708,-444.4579 317.7806,-433.9038 311.4013,-436.7857"/>
<text text-anchor="middle" x="309.9796" y="-369" font-family="Times,serif" font-size="14.00" fill="#000000">180</text>
</g>
<!-- down&#45;&gt;right -->
<g id="edge12" class="edge">
<title>down-&gt;right</title>
<path fill="none" stroke="#000000" d="M251.819,-292.8376C220.9852,-299.7464 182.2178,-310.0384 169.4796,-320.4 161.355,-327.0088 155.2843,-336.6145 150.9109,-345.8264"/>
<polygon fill="#000000" stroke="#000000" points="147.6423,-344.5691 146.9529,-355.1415 154.0849,-347.3066 147.6423,-344.5691"/>
<text text-anchor="middle" x="179.9796" y="-324.6" font-family="Times,serif" font-size="14.00" fill="#000000">270</text>
</g>
<!-- down&#45;&gt;down -->
<g id="edge16" class="edge">
<title>down-&gt;down</title>
<path fill="none" stroke="#000000" d="M335.3522,-292.6419C348.2948,-292.4754 358.4583,-289.7281 358.4583,-284.4 358.4583,-280.5704 353.2078,-278.0741 345.4488,-276.911"/>
<polygon fill="#000000" stroke="#000000" points="345.5849,-273.4115 335.3522,-276.1581 345.0642,-280.3921 345.5849,-273.4115"/>
<text text-anchor="middle" x="368.9583" y="-280.2" font-family="Times,serif" font-size="14.00" fill="#000000">360</text>
</g>
<!-- down&#45;&gt;left -->
<g id="edge4" class="edge">
<title>down-&gt;left</title>
<path fill="none" stroke="#000000" d="M282.7489,-266.5547C276.038,-255.9651 266.9017,-242.52 257.4796,-231.6 253.7174,-227.2397 249.4676,-222.8627 245.1926,-218.737"/>
<polygon fill="#000000" stroke="#000000" points="247.274,-215.8928 237.5701,-211.6401 242.504,-221.016 247.274,-215.8928"/>
<text text-anchor="middle" x="277.4796" y="-235.8" font-family="Times,serif" font-size="14.00" fill="#000000">90</text>
</g>
<!-- myy -->
<g id="node8" class="node">
<title>myy</title>
<ellipse fill="none" stroke="#000000" cx="352.4796" cy="-195.6" rx="36.4994" ry="18"/>
<text text-anchor="middle" x="352.4796" y="-191.4" font-family="Times,serif" font-size="14.00" fill="#000000">x, y-m</text>
</g>
<!-- down&#45;&gt;myy -->
<g id="edge22" class="edge">
<title>down-&gt;myy</title>
<path fill="none" stroke="#000000" d="M299.6147,-266.4502C303.6876,-255.8235 309.6339,-242.3762 316.9838,-231.6 319.9976,-227.1813 323.5878,-222.8265 327.3093,-218.7554"/>
<polygon fill="#000000" stroke="#000000" points="330.0585,-220.9482 334.5106,-211.3342 325.0348,-216.0734 330.0585,-220.9482"/>
<text text-anchor="middle" x="339.2275" y="-235.8" font-family="Times,serif" font-size="14.00" fill="#000000">move m</text>
</g>
<!-- left&#45;&gt;up -->
<g id="edge5" class="edge">
<title>left-&gt;up</title>
<path fill="none" stroke="#000000" d="M217.9777,-213.808C217.9926,-224.0425 218.5079,-237.0111 220.4796,-248.4 235.2477,-333.7028 254.6816,-352.5343 300.4796,-426 302.7579,-429.6547 305.3069,-433.4046 307.9045,-437.0394"/>
<polygon fill="#000000" stroke="#000000" points="305.1887,-439.2535 313.9489,-445.2125 310.8168,-435.0912 305.1887,-439.2535"/>
<text text-anchor="middle" x="254.4796" y="-324.6" font-family="Times,serif" font-size="14.00" fill="#000000">90</text>
</g>
<!-- left&#45;&gt;right -->
<g id="edge9" class="edge">
<title>left-&gt;right</title>
<path fill="none" stroke="#000000" d="M202.6389,-212.3361C197.6766,-218.1393 192.4622,-224.8815 188.4796,-231.6 166.9525,-267.9155 153.7856,-315.3851 147.0593,-345.0862"/>
<polygon fill="#000000" stroke="#000000" points="143.5712,-344.6562 144.869,-355.1712 150.4117,-346.1419 143.5712,-344.6562"/>
<text text-anchor="middle" x="181.9796" y="-280.2" font-family="Times,serif" font-size="14.00" fill="#000000">180</text>
</g>
<!-- left&#45;&gt;down -->
<g id="edge13" class="edge">
<title>left-&gt;down</title>
<path fill="none" stroke="#000000" d="M219.8304,-213.7402C221.4337,-224.6964 224.9196,-238.4225 232.4796,-248.4 237.764,-255.3742 244.8235,-261.2527 252.2631,-266.1058"/>
<polygon fill="#000000" stroke="#000000" points="250.7004,-269.2481 261.0875,-271.336 254.2696,-263.2264 250.7004,-269.2481"/>
<text text-anchor="middle" x="242.9796" y="-235.8" font-family="Times,serif" font-size="14.00" fill="#000000">270</text>
</g>
<!-- left&#45;&gt;left -->
<g id="edge17" class="edge">
<title>left-&gt;left</title>
<path fill="none" stroke="#000000" d="M252.6158,-203.8419C264.8753,-204.0192 274.8704,-201.2719 274.8704,-195.6 274.8704,-191.612 269.929,-189.0698 262.7334,-187.9735"/>
<polygon fill="#000000" stroke="#000000" points="262.8099,-184.4717 252.6158,-187.3581 262.3848,-191.4588 262.8099,-184.4717"/>
<text text-anchor="middle" x="285.3704" y="-191.4" font-family="Times,serif" font-size="14.00" fill="#000000">360</text>
</g>
<!-- mxx -->
<g id="node6" class="node">
<title>mxx</title>
<ellipse fill="none" stroke="#000000" cx="280.4796" cy="-106.8" rx="36.4994" ry="18"/>
<text text-anchor="middle" x="280.4796" y="-102.6" font-family="Times,serif" font-size="14.00" fill="#000000">x-m, y</text>
</g>
<!-- left&#45;&gt;mxx -->
<g id="edge24" class="edge">
<title>left-&gt;mxx</title>
<path fill="none" stroke="#000000" d="M212.4685,-177.7836C209.9329,-166.9493 208.8105,-153.2375 214.9838,-142.8 220.6985,-133.1378 230.031,-125.8948 239.8833,-120.5392"/>
<polygon fill="#000000" stroke="#000000" points="241.5096,-123.6406 248.9886,-116.1363 238.4622,-117.3387 241.5096,-123.6406"/>
<text text-anchor="middle" x="238.2275" y="-147" font-family="Times,serif" font-size="14.00" fill="#000000">move m</text>
</g>
<!-- mx&#45;&gt;right -->
<g id="edge21" class="edge">
<title>mx-&gt;right</title>
<path fill="none" stroke="#000000" d="M54.016,-301.2835C64.2138,-312.0156 78.07,-325.955 91.319,-337.2 97.1623,-342.1594 103.6544,-347.1568 109.9771,-351.784"/>
<polygon fill="#000000" stroke="#000000" points="108.2486,-354.851 118.4171,-357.8262 112.3233,-349.1592 108.2486,-354.851"/>
<text text-anchor="middle" x="95.5599" y="-324.6" font-family="Times,serif" font-size="14.00" fill="#000000">ε</text>
</g>
<!-- error -->
<g id="node9" class="node">
<title>error</title>
<ellipse fill="none" stroke="#000000" cx="333.4796" cy="-18" rx="29.5936" ry="18"/>
<text text-anchor="middle" x="333.4796" y="-13.8" font-family="Times,serif" font-size="14.00" fill="#000000">error</text>
</g>
<!-- mx&#45;&gt;error -->
<g id="edge28" class="edge">
<title>mx-&gt;error</title>
<path fill="none" stroke="#000000" d="M53.5126,-267.8104C85.4529,-232.9488 163.0889,-150.2373 235.4796,-88.8 257.7838,-69.8706 284.8497,-50.5671 304.8813,-36.9077"/>
<polygon fill="#000000" stroke="#000000" points="306.9496,-39.7343 313.2738,-31.234 303.0291,-33.9351 306.9496,-39.7343"/>
<text text-anchor="middle" x="186.4269" y="-147" font-family="Times,serif" font-size="14.00" fill="#000000">x&gt;9</text>
</g>
<!-- mxx&#45;&gt;left -->
<g id="edge25" class="edge">
<title>mxx-&gt;left</title>
<path fill="none" stroke="#000000" d="M276.0354,-125.002C272.8449,-135.7181 267.8018,-149.1709 260.4796,-159.6 256.9444,-164.6353 252.5484,-169.4048 247.9438,-173.7264"/>
<polygon fill="#000000" stroke="#000000" points="245.3568,-171.338 240.1128,-180.544 249.9532,-176.6175 245.3568,-171.338"/>
<text text-anchor="middle" x="273.5599" y="-147" font-family="Times,serif" font-size="14.00" fill="#000000">ε</text>
</g>
<!-- mxx&#45;&gt;error -->
<g id="edge29" class="edge">
<title>mxx-&gt;error</title>
<path fill="none" stroke="#000000" d="M290.9507,-89.256C298.6953,-76.2801 309.3656,-58.4024 318.0806,-43.8006"/>
<polygon fill="#000000" stroke="#000000" points="321.0909,-45.5861 323.2106,-35.2054 315.0801,-41.9985 321.0909,-45.5861"/>
<text text-anchor="middle" x="322.4269" y="-58.2" font-family="Times,serif" font-size="14.00" fill="#000000">x&lt;0</text>
</g>
<!-- my&#45;&gt;up -->
<g id="edge19" class="edge">
<title>my-&gt;up</title>
<path fill="none" stroke="#000000" d="M457.301,-390.2179C447.1484,-401.5528 432.6411,-416.1243 417.4796,-426 402.2989,-435.8882 383.9699,-443.8263 367.8252,-449.7057"/>
<polygon fill="#000000" stroke="#000000" points="366.3906,-446.4993 358.1028,-453.0995 368.6976,-453.1082 366.3906,-446.4993"/>
<text text-anchor="middle" x="442.5599" y="-413.4" font-family="Times,serif" font-size="14.00" fill="#000000">ε</text>
</g>
<!-- my&#45;&gt;error -->
<g id="edge26" class="edge">
<title>my-&gt;error</title>
<path fill="none" stroke="#000000" d="M466.9729,-355.3025C462.8802,-337.4606 457.4796,-309.2153 457.4796,-284.4 457.4796,-284.4 457.4796,-284.4 457.4796,-106.8 457.4796,-63.8394 407.6726,-39.6652 371.1914,-27.7207"/>
<polygon fill="#000000" stroke="#000000" points="371.8951,-24.275 361.3076,-24.6706 369.8309,-30.9638 371.8951,-24.275"/>
<text text-anchor="middle" x="468.4269" y="-191.4" font-family="Times,serif" font-size="14.00" fill="#000000">y&gt;9</text>
</g>
<!-- myy&#45;&gt;down -->
<g id="edge23" class="edge">
<title>myy-&gt;down</title>
<path fill="none" stroke="#000000" d="M361.7387,-213.3504C366.0053,-224.1599 368.8635,-237.8687 362.4796,-248.4 357.2265,-257.0658 349.1291,-263.7439 340.3048,-268.8552"/>
<polygon fill="#000000" stroke="#000000" points="338.6209,-265.7852 331.3167,-273.4598 341.8126,-272.0153 338.6209,-265.7852"/>
<text text-anchor="middle" x="369.5599" y="-235.8" font-family="Times,serif" font-size="14.00" fill="#000000">ε</text>
</g>
<!-- myy&#45;&gt;error -->
<g id="edge27" class="edge">
<title>myy-&gt;error</title>
<path fill="none" stroke="#000000" d="M350.5678,-177.267C347.7458,-150.2711 342.2803,-98.2379 337.4796,-54 337.2163,-51.5735 336.9409,-49.0553 336.6631,-46.529"/>
<polygon fill="#000000" stroke="#000000" points="340.1112,-45.8665 335.5326,-36.3121 333.1537,-46.6364 340.1112,-45.8665"/>
<text text-anchor="middle" x="355.4269" y="-102.6" font-family="Times,serif" font-size="14.00" fill="#000000">y&lt;0</text>
</g>
<g id="node10" class="node">
<title/>
<ellipse fill="none" stroke="#000000" cx="141.4796" cy="-462" rx="27" ry="18"/>
</g>
<!-- &#45;&gt;right -->
<g id="edge1" class="edge">
<title>-&gt;right</title>
<path fill="none" stroke="#000000" d="M141.4796,-443.6006C141.4796,-431.4949 141.4796,-415.4076 141.4796,-401.6674"/>
<polygon fill="#000000" stroke="#000000" points="144.9797,-401.272 141.4796,-391.272 137.9797,-401.2721 144.9797,-401.272"/>
<text text-anchor="middle" x="145.5599" y="-413.4" font-family="Times,serif" font-size="14.00" fill="#000000">ε</text>
</g>
</g>
</svg>